<svg width="24" height="24" viewBox="0 0 24 24" fill="none" xmlns="http://www.w3.org/2000/svg">
<path d="M0.408728 7.96925H5.58249V24H0.408728V7.96925ZM2.99681 1.63706e-06C3.59022 -0.000606617 4.17049 0.168296 4.66422 0.485348C5.15795 0.802399 5.54297 1.25336 5.77057 1.78118C5.99817 2.309 6.05813 2.88997 5.94286 3.45062C5.82759 4.01126 5.54228 4.52639 5.12301 4.93085C4.70374 5.3353 4.16935 5.61092 3.58742 5.72283C3.0055 5.83474 2.40219 5.77792 1.85379 5.55955C1.3054 5.34119 0.836568 4.97109 0.50659 4.49607C0.176613 4.02105 0.000316255 3.46245 1.06593e-07 2.89092C-0.000211795 2.12467 0.31552 1.3897 0.877784 0.847593C1.44005 0.305485 2.20282 0.000613141 2.9984 1.63706e-06" fill="#007BB5"/>
<path d="M7 8.38568H12.2287V10.5215H12.3036C13.0312 9.29258 14.8094 8 17.4608 8C22.9813 8 24 11.233 24 15.4357V24H18.5509V16.407C18.5509 14.5962 18.5164 12.2657 15.7179 12.2657C12.8814 12.2657 12.4491 14.2405 12.4491 16.2767V24H7V8.38568Z" fill="#007BB5"/>
</svg>
