<svg width="27" height="24" viewBox="0 0 27 24" fill="none" xmlns="http://www.w3.org/2000/svg">
<path d="M26.5164 11.8351L21.7417 9.05371V16.7832H26.7784V12.2911C26.7784 12.1038 26.6784 11.9298 26.5164 11.8351Z" fill="#1A237E"/>
<path d="M20.0574 1.89336H26.0881V1.15468C26.0881 0.516674 25.5714 0 24.9341 0H9.22255C8.58521 0 8.06787 0.516674 8.06787 1.15468V1.89336H14.0713H20.0574Z" fill="#0C4999"/>
<path d="M20.0576 18.3482H24.9337C25.571 18.3482 26.0884 17.8315 26.0884 17.1935V12.6421H20.0576V18.3482Z" fill="#0F73D9"/>
<path d="M8.06836 12.6436V17.195C8.06836 17.8323 8.58503 18.3496 9.22304 18.3496H14.0718V12.6442H8.06836V12.6436Z" fill="#0F439D"/>
<path d="M20.0576 1.89307H26.0884V7.24447H20.0576V1.89307Z" fill="#2ECDFD"/>
<path d="M8.06836 1.89307H14.0718V7.24447H8.06836V1.89307Z" fill="#1C5FB0"/>
<path d="M14.0718 12.6436H20.0579V18.349H14.0718V12.6436Z" fill="#1467C7"/>
<path d="M14.0718 1.89307H20.0579V7.24447H14.0718V1.89307Z" fill="#1690D5"/>
<path d="M20.0576 7.24512H26.0884V12.6425H20.0576V7.24512Z" fill="#1BB4FF"/>
<path d="M8.06836 7.24512H14.0718V12.6425H8.06836V7.24512Z" fill="#074DAF"/>
<path d="M14.0718 7.24512H20.0579V12.6425H14.0718V7.24512Z" fill="#2076D4"/>
<path d="M7.73909 24.0002C8.04776 24.0002 25.6527 24.0002 25.6527 24.0002C26.2747 24.0002 26.7787 23.4961 26.7787 22.8741V12.292C26.7787 12.292 26.7587 12.7307 25.6113 13.37C24.7447 13.8527 7.27441 23.7108 7.27441 23.7108C7.27441 23.7108 7.43042 24.0002 7.73909 24.0002Z" fill="#2ED0FF"/>
<path d="M25.6312 23.9978C25.5239 23.9978 7.90434 23.9998 7.90434 23.9998C7.28233 23.9998 6.77832 23.4958 6.77832 22.8737V12.7109L26.3539 23.7524C26.1906 23.8831 25.9833 23.9978 25.6312 23.9978Z" fill="#139FE2"/>
<path d="M12.3242 18.667H1.23201C0.613335 18.667 0.111328 18.165 0.111328 17.5463V6.45418C0.111328 5.8355 0.613335 5.3335 1.23201 5.3335H12.3242C12.9428 5.3335 13.4448 5.8355 13.4448 6.45418V17.5463C13.4448 18.165 12.9428 18.667 12.3242 18.667Z" fill="#00488D"/>
<path d="M6.72118 8.48975C4.63382 8.48975 3.37646 10.0844 3.37646 12.0518C3.37646 14.0192 4.62915 15.6132 6.72118 15.6132C8.81387 15.6132 10.0659 14.0185 10.0659 12.0518C10.0659 10.0844 8.80854 8.48975 6.72118 8.48975ZM6.72118 14.4112C5.53716 14.4112 4.82915 13.3551 4.82915 12.0518C4.82915 10.7484 5.54049 9.69243 6.72118 9.69243C7.90186 9.69243 8.61387 10.7491 8.61387 12.0518C8.61387 13.3545 7.90453 14.4112 6.72118 14.4112Z" fill="white"/>
</svg>
